<svg xmlns="http://www.w3.org/2000/svg" xmlns:xlink="http://www.w3.org/1999/xlink" width="500" zoomAndPan="magnify" viewBox="0 0 375 374.999991" height="500" preserveAspectRatio="xMidYMid meet" version="1.0"><defs><clipPath id="1398cda9d3"><path d="M 7 7 L 368 7 L 368 368 L 7 368 Z M 7 7 " clip-rule="nonzero"/></clipPath><clipPath id="b9d12ef1db"><path d="M 224.195312 439.257812 L -63.933594 224.445312 L 150.882812 -63.683594 L 439.011719 151.128906 Z M 224.195312 439.257812 " clip-rule="nonzero"/></clipPath><clipPath id="2d1a222b86"><path d="M 224.195312 439.257812 L -63.933594 224.445312 L 150.882812 -63.683594 L 439.011719 151.128906 Z M 224.195312 439.257812 " clip-rule="nonzero"/></clipPath><clipPath id="a71e56815b"><path d="M 43.265625 79.964844 C 45.027344 77.605469 46.84375 75.289062 48.714844 73.019531 C 50.589844 70.746094 52.519531 68.523438 54.5 66.347656 C 56.484375 64.167969 58.519531 62.042969 60.605469 59.964844 C 62.691406 57.890625 64.828125 55.863281 67.015625 53.894531 C 69.203125 51.921875 71.4375 50.003906 73.714844 48.144531 C 75.996094 46.28125 78.320312 44.476562 80.691406 42.726562 C 83.058594 40.980469 85.472656 39.289062 87.921875 37.660156 C 90.375 36.03125 92.867188 34.464844 95.394531 32.957031 C 97.925781 31.449219 100.488281 30.003906 103.089844 28.621094 C 105.6875 27.242188 108.320312 25.925781 110.988281 24.671875 C 113.652344 23.421875 116.34375 22.234375 119.066406 21.113281 C 121.789062 19.996094 124.539062 18.941406 127.3125 17.957031 C 130.089844 16.972656 132.886719 16.054688 135.707031 15.207031 C 138.527344 14.359375 141.363281 13.582031 144.222656 12.875 C 147.078125 12.167969 149.953125 11.527344 152.84375 10.960938 C 155.730469 10.394531 158.632812 9.898438 161.546875 9.472656 C 164.460938 9.050781 167.382812 8.695312 170.3125 8.414062 C 173.242188 8.132812 176.179688 7.925781 179.121094 7.789062 C 182.0625 7.652344 185.003906 7.585938 187.949219 7.59375 C 190.894531 7.601562 193.835938 7.679688 196.777344 7.832031 C 199.714844 7.984375 202.652344 8.207031 205.578125 8.503906 C 208.507812 8.800781 211.429688 9.167969 214.339844 9.605469 C 217.253906 10.046875 220.152344 10.554688 223.039062 11.136719 C 225.921875 11.71875 228.792969 12.371094 231.648438 13.09375 C 234.503906 13.816406 237.335938 14.609375 240.152344 15.472656 C 242.96875 16.332031 245.761719 17.261719 248.53125 18.261719 C 251.300781 19.261719 254.042969 20.328125 256.761719 21.460938 C 259.476562 22.59375 262.164062 23.792969 264.824219 25.058594 C 267.480469 26.324219 270.109375 27.65625 272.699219 29.050781 C 275.292969 30.441406 277.851562 31.902344 280.375 33.421875 C 282.894531 34.941406 285.378906 36.519531 287.820312 38.164062 C 290.265625 39.804688 292.667969 41.507812 295.027344 43.265625 C 297.386719 45.027344 299.703125 46.84375 301.976562 48.714844 C 304.246094 50.589844 306.46875 52.519531 308.648438 54.5 C 310.824219 56.484375 312.949219 58.519531 315.027344 60.605469 C 317.105469 62.691406 319.128906 64.828125 321.101562 67.015625 C 323.070312 69.203125 324.988281 71.4375 326.851562 73.714844 C 328.710938 75.996094 330.519531 78.320312 332.265625 80.691406 C 334.011719 83.058594 335.703125 85.472656 337.332031 87.921875 C 338.960938 90.375 340.53125 92.867188 342.039062 95.394531 C 343.542969 97.925781 344.988281 100.488281 346.371094 103.089844 C 347.75 105.6875 349.070312 108.320312 350.320312 110.988281 C 351.574219 113.652344 352.757812 116.34375 353.878906 119.066406 C 355 121.789062 356.050781 124.539062 357.035156 127.3125 C 358.019531 130.089844 358.9375 132.886719 359.785156 135.707031 C 360.632812 138.527344 361.410156 141.363281 362.117188 144.222656 C 362.828125 147.078125 363.464844 149.953125 364.03125 152.84375 C 364.597656 155.730469 365.09375 158.632812 365.519531 161.546875 C 365.945312 164.460938 366.296875 167.382812 366.578125 170.3125 C 366.859375 173.242188 367.070312 176.179688 367.207031 179.121094 C 367.34375 182.0625 367.40625 185.003906 367.398438 187.949219 C 367.394531 190.894531 367.3125 193.835938 367.160156 196.777344 C 367.007812 199.714844 366.785156 202.652344 366.488281 205.578125 C 366.195312 208.507812 365.824219 211.429688 365.386719 214.339844 C 364.949219 217.253906 364.4375 220.152344 363.855469 223.039062 C 363.273438 225.921875 362.621094 228.792969 361.898438 231.648438 C 361.175781 234.503906 360.382812 237.335938 359.523438 240.152344 C 358.660156 242.96875 357.730469 245.761719 356.730469 248.53125 C 355.734375 251.300781 354.667969 254.042969 353.53125 256.761719 C 352.398438 259.476562 351.199219 262.164062 349.933594 264.824219 C 348.667969 267.480469 347.339844 270.109375 345.945312 272.699219 C 344.550781 275.292969 343.09375 277.851562 341.574219 280.375 C 340.054688 282.894531 338.472656 285.378906 336.828125 287.820312 C 335.1875 290.265625 333.488281 292.667969 331.726562 295.027344 C 329.96875 297.386719 328.152344 299.703125 326.277344 301.976562 C 324.402344 304.246094 322.476562 306.46875 320.492188 308.648438 C 318.511719 310.824219 316.476562 312.949219 314.386719 315.027344 C 312.300781 317.105469 310.164062 319.128906 307.976562 321.101562 C 305.792969 323.070312 303.558594 324.988281 301.277344 326.851562 C 298.996094 328.710938 296.671875 330.519531 294.300781 332.265625 C 291.933594 334.011719 289.523438 335.703125 287.070312 337.332031 C 284.617188 338.960938 282.128906 340.53125 279.597656 342.039062 C 277.070312 343.542969 274.503906 344.988281 271.902344 346.371094 C 269.304688 347.75 266.671875 349.070312 264.007812 350.320312 C 261.34375 351.574219 258.648438 352.757812 255.925781 353.878906 C 253.203125 355 250.453125 356.050781 247.679688 357.035156 C 244.902344 358.019531 242.105469 358.9375 239.289062 359.785156 C 236.46875 360.632812 233.628906 361.410156 230.769531 362.117188 C 227.914062 362.828125 225.039062 363.464844 222.152344 364.03125 C 219.261719 364.597656 216.359375 365.09375 213.445312 365.519531 C 210.535156 365.945312 207.613281 366.296875 204.679688 366.578125 C 201.75 366.859375 198.8125 367.070312 195.871094 367.207031 C 192.933594 367.34375 189.988281 367.40625 187.042969 367.398438 C 184.101562 367.394531 181.160156 367.3125 178.21875 367.160156 C 175.277344 367.007812 172.34375 366.785156 169.414062 366.488281 C 166.484375 366.195312 163.5625 365.824219 160.652344 365.386719 C 157.742188 364.949219 154.84375 364.4375 151.957031 363.855469 C 149.070312 363.273438 146.199219 362.621094 143.34375 361.898438 C 140.492188 361.175781 137.65625 360.382812 134.839844 359.523438 C 132.027344 358.660156 129.234375 357.730469 126.464844 356.730469 C 123.695312 355.734375 120.949219 354.667969 118.234375 353.53125 C 115.515625 352.398438 112.828125 351.199219 110.167969 349.933594 C 107.511719 348.667969 104.886719 347.339844 102.292969 345.945312 C 99.699219 344.550781 97.140625 343.09375 94.621094 341.574219 C 92.097656 340.054688 89.617188 338.472656 87.171875 336.828125 C 84.726562 335.1875 82.324219 333.488281 79.964844 331.726562 C 77.605469 329.96875 75.289062 328.152344 73.019531 326.277344 C 70.746094 324.402344 68.523438 322.476562 66.347656 320.492188 C 64.167969 318.511719 62.042969 316.476562 59.964844 314.386719 C 57.890625 312.300781 55.863281 310.164062 53.894531 307.976562 C 51.921875 305.792969 50.003906 303.558594 48.144531 301.277344 C 46.28125 298.996094 44.476562 296.671875 42.726562 294.300781 C 40.980469 291.933594 39.289062 289.523438 37.660156 287.070312 C 36.03125 284.617188 34.464844 282.128906 32.957031 279.597656 C 31.449219 277.070312 30.003906 274.503906 28.621094 271.902344 C 27.242188 269.304688 25.925781 266.671875 24.671875 264.007812 C 23.421875 261.34375 22.234375 258.648438 21.113281 255.925781 C 19.996094 253.203125 18.941406 250.453125 17.957031 247.679688 C 16.972656 244.902344 16.054688 242.105469 15.207031 239.289062 C 14.359375 236.46875 13.582031 233.628906 12.875 230.769531 C 12.167969 227.914062 11.527344 225.039062 10.960938 222.152344 C 10.394531 219.261719 9.898438 216.359375 9.472656 213.445312 C 9.050781 210.535156 8.695312 207.613281 8.414062 204.679688 C 8.132812 201.75 7.925781 198.8125 7.789062 195.871094 C 7.652344 192.933594 7.585938 189.988281 7.59375 187.042969 C 7.601562 184.101562 7.679688 181.160156 7.832031 178.21875 C 7.984375 175.277344 8.207031 172.34375 8.503906 169.414062 C 8.800781 166.484375 9.167969 163.5625 9.605469 160.652344 C 10.046875 157.742188 10.554688 154.84375 11.136719 151.957031 C 11.71875 149.070312 12.371094 146.199219 13.09375 143.34375 C 13.816406 140.492188 14.609375 137.65625 15.472656 134.839844 C 16.332031 132.027344 17.261719 129.234375 18.261719 126.464844 C 19.261719 123.695312 20.328125 120.949219 21.460938 118.234375 C 22.59375 115.515625 23.792969 112.828125 25.058594 110.167969 C 26.324219 107.511719 27.65625 104.886719 29.050781 102.292969 C 30.441406 99.699219 31.902344 97.140625 33.421875 94.621094 C 34.941406 92.097656 36.519531 89.617188 38.164062 87.171875 C 39.804688 84.726562 41.507812 82.324219 43.265625 79.964844 Z M 43.265625 79.964844 " clip-rule="nonzero"/></clipPath><clipPath id="34cc7cc1fe"><path d="M 62 63.25 L 126 63.25 L 126 127 L 62 127 Z M 62 63.25 " clip-rule="nonzero"/></clipPath><clipPath id="531fa8905e"><path d="M 247 248 L 311 248 L 311 311.699219 L 247 311.699219 Z M 247 248 " clip-rule="nonzero"/></clipPath><clipPath id="433d2b0d19"><path d="M 66 63.25 L 312 63.25 L 312 310 L 66 310 Z M 66 63.25 " clip-rule="nonzero"/></clipPath></defs><g clip-path="url(#1398cda9d3)"><g clip-path="url(#b9d12ef1db)"><g clip-path="url(#2d1a222b86)"><g clip-path="url(#a71e56815b)"><path fill="#ffffff" d="M -164.839844 238.855469 L 238.855469 539.832031 L 539.832031 136.136719 L 136.136719 -164.839844 Z M -164.839844 238.855469 " fill-opacity="1" fill-rule="nonzero"/></g></g></g></g><g clip-path="url(#34cc7cc1fe)"><path fill="#000000" d="M 68.320312 93.464844 L 92.824219 68.917969 C 93.277344 68.480469 93.75 68.066406 94.242188 67.679688 C 94.734375 67.289062 95.242188 66.925781 95.773438 66.585938 C 96.300781 66.246094 96.84375 65.929688 97.402344 65.644531 C 97.960938 65.355469 98.53125 65.097656 99.113281 64.863281 C 99.699219 64.632812 100.289062 64.429688 100.894531 64.257812 C 101.496094 64.082031 102.105469 63.9375 102.722656 63.824219 C 103.339844 63.707031 103.960938 63.625 104.589844 63.570312 C 105.214844 63.515625 105.839844 63.492188 106.46875 63.496094 C 107.09375 63.503906 107.722656 63.539062 108.34375 63.605469 C 108.96875 63.675781 109.589844 63.773438 110.203125 63.898438 C 110.816406 64.027344 111.425781 64.183594 112.023438 64.371094 C 112.625 64.554688 113.210938 64.769531 113.792969 65.015625 C 114.371094 65.257812 114.933594 65.53125 115.488281 65.828125 C 116.039062 66.125 116.578125 66.453125 117.097656 66.800781 C 117.617188 67.152344 118.121094 67.527344 118.605469 67.925781 C 119.089844 68.328125 119.554688 68.75 120 69.195312 C 120.441406 69.636719 120.863281 70.105469 121.261719 70.589844 C 121.660156 71.074219 122.035156 71.578125 122.386719 72.101562 C 122.734375 72.621094 123.058594 73.160156 123.359375 73.714844 C 123.65625 74.265625 123.925781 74.832031 124.167969 75.414062 C 124.414062 75.992188 124.628906 76.582031 124.8125 77.183594 C 125 77.785156 125.15625 78.394531 125.285156 79.007812 C 125.410156 79.625 125.507812 80.246094 125.574219 80.871094 C 125.640625 81.496094 125.679688 82.121094 125.683594 82.75 C 125.691406 83.378906 125.667969 84.007812 125.613281 84.632812 C 125.558594 85.261719 125.472656 85.882812 125.359375 86.5 C 125.246094 87.121094 125.101562 87.730469 124.925781 88.335938 C 124.753906 88.941406 124.550781 89.535156 124.320312 90.117188 C 124.089844 90.703125 123.828125 91.277344 123.542969 91.835938 C 123.253906 92.394531 122.941406 92.9375 122.601562 93.46875 C 122.265625 93.996094 121.898438 94.507812 121.511719 95 C 121.121094 95.496094 120.710938 95.96875 120.277344 96.421875 L 95.773438 120.972656 C 95.320312 121.40625 94.847656 121.820312 94.355469 122.210938 C 93.863281 122.597656 93.351562 122.964844 92.824219 123.304688 C 92.296875 123.644531 91.753906 123.957031 91.195312 124.246094 C 90.636719 124.53125 90.066406 124.792969 89.484375 125.023438 C 88.898438 125.253906 88.304688 125.457031 87.703125 125.632812 C 87.101562 125.804688 86.488281 125.949219 85.871094 126.066406 C 85.253906 126.179688 84.632812 126.265625 84.007812 126.320312 C 83.382812 126.375 82.757812 126.398438 82.128906 126.390625 C 81.5 126.386719 80.875 126.347656 80.253906 126.28125 C 79.628906 126.214844 79.007812 126.117188 78.394531 125.988281 C 77.78125 125.863281 77.171875 125.703125 76.574219 125.519531 C 75.972656 125.332031 75.382812 125.117188 74.804688 124.875 C 74.226562 124.628906 73.660156 124.359375 73.109375 124.058594 C 72.558594 123.761719 72.019531 123.4375 71.5 123.085938 C 70.976562 122.734375 70.476562 122.359375 69.992188 121.960938 C 69.507812 121.5625 69.042969 121.140625 68.597656 120.695312 C 68.152344 120.25 67.734375 119.785156 67.335938 119.300781 C 66.933594 118.8125 66.5625 118.308594 66.210938 117.789062 C 65.859375 117.265625 65.535156 116.726562 65.238281 116.175781 C 64.941406 115.621094 64.671875 115.054688 64.425781 114.476562 C 64.183594 113.894531 63.96875 113.304688 63.785156 112.703125 C 63.597656 112.101562 63.441406 111.496094 63.3125 110.878906 C 63.1875 110.261719 63.089844 109.644531 63.023438 109.019531 C 62.957031 108.390625 62.917969 107.765625 62.910156 107.136719 C 62.90625 106.507812 62.929688 105.878906 62.984375 105.253906 C 63.039062 104.628906 63.121094 104.003906 63.238281 103.386719 C 63.351562 102.769531 63.496094 102.15625 63.667969 101.550781 C 63.84375 100.949219 64.046875 100.355469 64.277344 99.769531 C 64.507812 99.183594 64.769531 98.613281 65.054688 98.054688 C 65.339844 97.492188 65.652344 96.949219 65.992188 96.421875 C 66.332031 95.890625 66.695312 95.378906 67.085938 94.886719 C 67.472656 94.394531 67.886719 93.917969 68.320312 93.464844 Z M 68.320312 93.464844 " fill-opacity="1" fill-rule="nonzero"/></g><path fill="#000000" d="M 70.097656 184.820312 L 185.175781 69.523438 C 185.628906 69.085938 186.101562 68.675781 186.59375 68.285156 C 187.085938 67.894531 187.597656 67.53125 188.125 67.191406 C 188.652344 66.851562 189.195312 66.535156 189.753906 66.25 C 190.3125 65.960938 190.882812 65.703125 191.46875 65.46875 C 192.050781 65.238281 192.644531 65.035156 193.246094 64.863281 C 193.851562 64.6875 194.460938 64.542969 195.078125 64.429688 C 195.695312 64.3125 196.316406 64.230469 196.941406 64.175781 C 197.566406 64.121094 198.191406 64.097656 198.820312 64.101562 C 199.449219 64.109375 200.074219 64.144531 200.699219 64.214844 C 201.320312 64.28125 201.941406 64.378906 202.554688 64.503906 C 203.171875 64.632812 203.777344 64.789062 204.375 64.976562 C 204.976562 65.160156 205.566406 65.378906 206.144531 65.621094 C 206.722656 65.863281 207.289062 66.136719 207.839844 66.433594 C 208.394531 66.734375 208.929688 67.058594 209.449219 67.40625 C 209.972656 67.757812 210.472656 68.132812 210.960938 68.53125 C 211.445312 68.933594 211.90625 69.355469 212.351562 69.800781 C 212.796875 70.246094 213.21875 70.710938 213.617188 71.195312 C 214.015625 71.679688 214.390625 72.183594 214.738281 72.707031 C 215.089844 73.226562 215.414062 73.765625 215.710938 74.320312 C 216.007812 74.875 216.28125 75.441406 216.523438 76.019531 C 216.765625 76.597656 216.980469 77.1875 217.167969 77.789062 C 217.351562 78.390625 217.507812 79 217.636719 79.613281 C 217.761719 80.230469 217.859375 80.851562 217.925781 81.476562 C 217.996094 82.101562 218.03125 82.730469 218.039062 83.355469 C 218.042969 83.984375 218.019531 84.613281 217.964844 85.242188 C 217.910156 85.867188 217.828125 86.488281 217.710938 87.109375 C 217.597656 87.726562 217.453125 88.335938 217.28125 88.941406 C 217.105469 89.546875 216.902344 90.140625 216.671875 90.726562 C 216.441406 91.308594 216.183594 91.882812 215.894531 92.441406 C 215.609375 93 215.296875 93.542969 214.957031 94.074219 C 214.617188 94.601562 214.253906 95.113281 213.863281 95.609375 C 213.476562 96.101562 213.0625 96.574219 212.628906 97.027344 L 97.550781 212.328125 C 97.105469 212.792969 96.636719 213.234375 96.148438 213.65625 C 95.65625 214.074219 95.148438 214.46875 94.621094 214.835938 C 94.089844 215.203125 93.542969 215.542969 92.980469 215.859375 C 92.417969 216.171875 91.839844 216.457031 91.25 216.710938 C 90.660156 216.96875 90.054688 217.195312 89.441406 217.390625 C 88.828125 217.585938 88.207031 217.75 87.574219 217.886719 C 86.945312 218.019531 86.3125 218.121094 85.671875 218.191406 C 85.03125 218.261719 84.386719 218.300781 83.742188 218.308594 C 83.097656 218.316406 82.457031 218.289062 81.816406 218.230469 C 81.171875 218.175781 80.535156 218.085938 79.902344 217.964844 C 79.269531 217.84375 78.644531 217.691406 78.027344 217.507812 C 77.410156 217.324219 76.804688 217.109375 76.207031 216.867188 C 75.609375 216.621094 75.027344 216.347656 74.457031 216.046875 C 73.890625 215.746094 73.335938 215.414062 72.800781 215.058594 C 72.261719 214.699219 71.746094 214.316406 71.246094 213.910156 C 70.75 213.5 70.273438 213.066406 69.816406 212.613281 C 69.359375 212.15625 68.929688 211.675781 68.519531 211.175781 C 68.113281 210.679688 67.730469 210.160156 67.375 209.621094 C 67.019531 209.085938 66.6875 208.53125 66.386719 207.960938 C 66.085938 207.390625 65.8125 206.804688 65.570312 206.207031 C 65.324219 205.609375 65.113281 205.003906 64.929688 204.382812 C 64.746094 203.765625 64.59375 203.136719 64.472656 202.503906 C 64.351562 201.871094 64.265625 201.230469 64.207031 200.589844 C 64.148438 199.945312 64.125 199.300781 64.128906 198.65625 C 64.136719 198.011719 64.175781 197.367188 64.246094 196.726562 C 64.316406 196.085938 64.417969 195.449219 64.550781 194.816406 C 64.6875 194.1875 64.851562 193.5625 65.046875 192.949219 C 65.242188 192.332031 65.46875 191.730469 65.722656 191.136719 C 65.980469 190.542969 66.261719 189.964844 66.574219 189.402344 C 66.890625 188.835938 67.230469 188.289062 67.597656 187.761719 C 67.964844 187.230469 68.355469 186.71875 68.773438 186.230469 C 69.191406 185.738281 69.632812 185.269531 70.097656 184.820312 Z M 70.097656 184.820312 " fill-opacity="1" fill-rule="nonzero"/><g clip-path="url(#531fa8905e)"><path fill="#000000" d="M 304.980469 281.488281 L 280.480469 306.035156 C 280.027344 306.484375 279.558594 306.910156 279.066406 307.3125 C 278.574219 307.714844 278.0625 308.089844 277.53125 308.441406 C 277.003906 308.792969 276.457031 309.121094 275.898438 309.417969 C 275.335938 309.71875 274.761719 309.988281 274.175781 310.230469 C 273.589844 310.472656 272.992188 310.683594 272.382812 310.867188 C 271.773438 311.054688 271.160156 311.207031 270.535156 311.332031 C 269.914062 311.453125 269.285156 311.546875 268.652344 311.609375 C 268.023438 311.671875 267.386719 311.703125 266.753906 311.703125 C 266.117188 311.703125 265.484375 311.671875 264.851562 311.609375 C 264.21875 311.546875 263.59375 311.453125 262.96875 311.332031 C 262.347656 311.207031 261.730469 311.054688 261.121094 310.867188 C 260.515625 310.683594 259.917969 310.472656 259.332031 310.230469 C 258.742188 309.988281 258.167969 309.71875 257.609375 309.417969 C 257.046875 309.121094 256.503906 308.792969 255.972656 308.441406 C 255.445312 308.089844 254.933594 307.714844 254.441406 307.3125 C 253.949219 306.910156 253.476562 306.484375 253.027344 306.035156 C 252.578125 305.585938 252.152344 305.113281 251.746094 304.621094 C 251.34375 304.128906 250.964844 303.617188 250.613281 303.089844 C 250.261719 302.558594 249.933594 302.011719 249.632812 301.449219 C 249.335938 300.890625 249.0625 300.3125 248.820312 299.726562 C 248.578125 299.136719 248.363281 298.539062 248.179688 297.929688 C 247.992188 297.320312 247.839844 296.703125 247.714844 296.078125 C 247.589844 295.453125 247.5 294.824219 247.4375 294.1875 C 247.375 293.554688 247.34375 292.917969 247.34375 292.28125 C 247.34375 291.644531 247.375 291.011719 247.4375 290.375 C 247.5 289.742188 247.589844 289.113281 247.714844 288.488281 C 247.839844 287.863281 247.992188 287.246094 248.179688 286.636719 C 248.363281 286.027344 248.578125 285.429688 248.820312 284.839844 C 249.0625 284.25 249.335938 283.675781 249.632812 283.113281 C 249.933594 282.550781 250.261719 282.007812 250.613281 281.476562 C 250.964844 280.949219 251.34375 280.4375 251.746094 279.945312 C 252.152344 279.453125 252.578125 278.980469 253.027344 278.527344 L 277.527344 253.980469 C 277.980469 253.542969 278.453125 253.132812 278.945312 252.742188 C 279.4375 252.351562 279.949219 251.988281 280.476562 251.648438 C 281.003906 251.308594 281.546875 250.996094 282.105469 250.707031 C 282.664062 250.421875 283.234375 250.160156 283.820312 249.929688 C 284.402344 249.695312 284.996094 249.492188 285.597656 249.320312 C 286.203125 249.144531 286.8125 249 287.429688 248.886719 C 288.046875 248.773438 288.667969 248.6875 289.292969 248.632812 C 289.917969 248.578125 290.546875 248.554688 291.171875 248.5625 C 291.800781 248.566406 292.425781 248.605469 293.050781 248.671875 C 293.675781 248.738281 294.292969 248.835938 294.910156 248.964844 C 295.523438 249.089844 296.128906 249.246094 296.730469 249.433594 C 297.328125 249.621094 297.917969 249.835938 298.496094 250.078125 C 299.074219 250.324219 299.640625 250.59375 300.191406 250.890625 C 300.746094 251.191406 301.28125 251.515625 301.804688 251.867188 C 302.324219 252.214844 302.828125 252.589844 303.3125 252.992188 C 303.796875 253.390625 304.261719 253.8125 304.703125 254.257812 C 305.148438 254.703125 305.570312 255.167969 305.96875 255.652344 C 306.367188 256.140625 306.742188 256.640625 307.089844 257.164062 C 307.441406 257.6875 307.765625 258.222656 308.0625 258.777344 C 308.363281 259.332031 308.632812 259.898438 308.875 260.476562 C 309.117188 261.058594 309.332031 261.648438 309.519531 262.25 C 309.703125 262.847656 309.863281 263.457031 309.988281 264.074219 C 310.117188 264.6875 310.214844 265.308594 310.28125 265.933594 C 310.347656 266.558594 310.382812 267.1875 310.390625 267.816406 C 310.398438 268.445312 310.371094 269.070312 310.320312 269.699219 C 310.265625 270.324219 310.179688 270.949219 310.066406 271.566406 C 309.949219 272.183594 309.804688 272.796875 309.632812 273.398438 C 309.457031 274.003906 309.257812 274.597656 309.023438 275.183594 C 308.792969 275.765625 308.535156 276.339844 308.246094 276.898438 C 307.960938 277.457031 307.648438 278.003906 307.308594 278.53125 C 306.96875 279.0625 306.605469 279.570312 306.214844 280.066406 C 305.828125 280.558594 305.417969 281.03125 304.980469 281.488281 Z M 304.980469 281.488281 " fill-opacity="1" fill-rule="nonzero"/></g><path fill="#000000" d="M 305.550781 190.128906 L 190.472656 305.535156 C 190.019531 305.972656 189.546875 306.386719 189.054688 306.773438 C 188.5625 307.164062 188.054688 307.527344 187.523438 307.871094 C 186.996094 308.210938 186.453125 308.523438 185.894531 308.808594 C 185.335938 309.097656 184.765625 309.355469 184.183594 309.589844 C 183.597656 309.820312 183.003906 310.023438 182.402344 310.195312 C 181.800781 310.371094 181.1875 310.515625 180.574219 310.628906 C 179.957031 310.746094 179.332031 310.832031 178.707031 310.882812 C 178.082031 310.9375 177.457031 310.964844 176.828125 310.957031 C 176.203125 310.949219 175.574219 310.914062 174.953125 310.847656 C 174.328125 310.777344 173.707031 310.683594 173.09375 310.554688 C 172.480469 310.425781 171.871094 310.269531 171.273438 310.082031 C 170.671875 309.898438 170.085938 309.683594 169.503906 309.4375 C 168.925781 309.195312 168.359375 308.925781 167.808594 308.625 C 167.257812 308.328125 166.71875 308.003906 166.199219 307.652344 C 165.679688 307.300781 165.175781 306.925781 164.691406 306.527344 C 164.207031 306.125 163.742188 305.703125 163.296875 305.257812 C 162.855469 304.816406 162.433594 304.351562 162.035156 303.863281 C 161.636719 303.378906 161.261719 302.875 160.910156 302.351562 C 160.558594 301.832031 160.238281 301.292969 159.9375 300.738281 C 159.640625 300.1875 159.371094 299.621094 159.125 299.039062 C 158.882812 298.460938 158.667969 297.871094 158.484375 297.269531 C 158.296875 296.667969 158.140625 296.058594 158.011719 295.445312 C 157.886719 294.828125 157.789062 294.207031 157.722656 293.582031 C 157.65625 292.957031 157.617188 292.332031 157.613281 291.703125 C 157.605469 291.074219 157.628906 290.445312 157.683594 289.820312 C 157.738281 289.191406 157.824219 288.570312 157.9375 287.953125 C 158.050781 287.332031 158.195312 286.722656 158.371094 286.117188 C 158.542969 285.511719 158.746094 284.917969 158.976562 284.335938 C 159.207031 283.75 159.46875 283.175781 159.753906 282.617188 C 160.039062 282.058594 160.355469 281.515625 160.691406 280.984375 C 161.03125 280.457031 161.398438 279.945312 161.785156 279.453125 C 162.175781 278.957031 162.585938 278.484375 163.019531 278.03125 L 278.097656 162.625 C 278.550781 162.1875 279.023438 161.777344 279.515625 161.386719 C 280.007812 160.996094 280.519531 160.632812 281.046875 160.292969 C 281.574219 159.953125 282.117188 159.636719 282.675781 159.351562 C 283.234375 159.0625 283.804688 158.804688 284.390625 158.574219 C 284.972656 158.339844 285.566406 158.136719 286.167969 157.964844 C 286.773438 157.789062 287.382812 157.644531 288 157.53125 C 288.617188 157.414062 289.238281 157.332031 289.863281 157.277344 C 290.488281 157.222656 291.113281 157.199219 291.742188 157.203125 C 292.371094 157.210938 292.996094 157.246094 293.621094 157.316406 C 294.242188 157.382812 294.863281 157.480469 295.476562 157.605469 C 296.09375 157.734375 296.699219 157.890625 297.296875 158.078125 C 297.898438 158.265625 298.488281 158.480469 299.066406 158.722656 C 299.644531 158.964844 300.210938 159.238281 300.761719 159.535156 C 301.316406 159.835938 301.851562 160.160156 302.371094 160.507812 C 302.894531 160.859375 303.394531 161.234375 303.878906 161.636719 C 304.367188 162.035156 304.828125 162.457031 305.273438 162.902344 C 305.71875 163.347656 306.136719 163.8125 306.539062 164.296875 C 306.9375 164.78125 307.3125 165.285156 307.660156 165.808594 C 308.011719 166.332031 308.335938 166.867188 308.632812 167.421875 C 308.929688 167.976562 309.203125 168.542969 309.445312 169.121094 C 309.6875 169.699219 309.902344 170.292969 310.089844 170.890625 C 310.273438 171.492188 310.429688 172.101562 310.558594 172.714844 C 310.683594 173.332031 310.78125 173.953125 310.847656 174.578125 C 310.917969 175.203125 310.953125 175.832031 310.960938 176.460938 C 310.964844 177.089844 310.941406 177.714844 310.886719 178.34375 C 310.832031 178.96875 310.75 179.589844 310.632812 180.210938 C 310.519531 180.828125 310.375 181.4375 310.203125 182.042969 C 310.027344 182.648438 309.824219 183.242188 309.59375 183.828125 C 309.363281 184.410156 309.105469 184.984375 308.816406 185.542969 C 308.53125 186.101562 308.21875 186.648438 307.878906 187.175781 C 307.539062 187.703125 307.175781 188.214844 306.785156 188.710938 C 306.398438 189.203125 305.984375 189.675781 305.550781 190.128906 Z M 305.550781 190.128906 " fill-opacity="1" fill-rule="nonzero"/><g clip-path="url(#433d2b0d19)"><path fill="#000000" d="M 311.597656 86.160156 L 311.597656 116.695312 C 311.597656 117.707031 311.515625 118.707031 311.351562 119.703125 C 311.1875 120.699219 310.941406 121.675781 310.617188 122.632812 C 310.292969 123.589844 309.890625 124.511719 309.414062 125.398438 C 308.9375 126.289062 308.390625 127.132812 307.777344 127.933594 C 307.160156 128.730469 306.484375 129.472656 305.746094 130.160156 C 305.007812 130.847656 304.21875 131.46875 303.375 132.027344 C 302.535156 132.582031 301.65625 133.066406 300.734375 133.476562 C 299.816406 133.886719 298.867188 134.222656 297.890625 134.476562 C 296.917969 134.730469 295.925781 134.902344 294.925781 134.992188 C 293.921875 135.082031 292.917969 135.089844 291.910156 135.015625 C 290.90625 134.9375 289.914062 134.78125 288.9375 134.542969 C 287.957031 134.300781 287.003906 133.984375 286.078125 133.585938 C 285.152344 133.191406 284.265625 132.71875 283.414062 132.175781 C 282.566406 131.632812 281.769531 131.023438 281.019531 130.347656 C 280.269531 129.667969 279.582031 128.9375 278.957031 128.148438 C 278.328125 127.359375 277.769531 126.523438 277.277344 125.640625 L 99.117188 303.863281 C 98.664062 304.296875 98.191406 304.710938 97.699219 305.101562 C 97.207031 305.488281 96.695312 305.855469 96.167969 306.195312 C 95.640625 306.535156 95.097656 306.847656 94.539062 307.136719 C 93.980469 307.421875 93.410156 307.683594 92.824219 307.914062 C 92.242188 308.144531 91.648438 308.347656 91.046875 308.523438 C 90.441406 308.695312 89.832031 308.839844 89.214844 308.957031 C 88.597656 309.070312 87.976562 309.15625 87.351562 309.210938 C 86.726562 309.265625 86.101562 309.289062 85.472656 309.28125 C 84.84375 309.273438 84.21875 309.238281 83.59375 309.171875 C 82.972656 309.105469 82.351562 309.007812 81.738281 308.878906 C 81.121094 308.753906 80.515625 308.59375 79.914062 308.410156 C 79.316406 308.222656 78.726562 308.007812 78.148438 307.765625 C 77.570312 307.519531 77.003906 307.25 76.453125 306.949219 C 75.898438 306.652344 75.363281 306.328125 74.84375 305.976562 C 74.320312 305.625 73.816406 305.25 73.332031 304.851562 C 72.847656 304.453125 72.382812 304.03125 71.941406 303.585938 C 71.496094 303.140625 71.074219 302.675781 70.675781 302.1875 C 70.277344 301.703125 69.902344 301.199219 69.554688 300.679688 C 69.203125 300.15625 68.878906 299.617188 68.582031 299.066406 C 68.285156 298.511719 68.011719 297.945312 67.769531 297.363281 C 67.527344 296.785156 67.3125 296.195312 67.125 295.59375 C 66.941406 294.992188 66.785156 294.386719 66.65625 293.769531 C 66.527344 293.152344 66.433594 292.535156 66.363281 291.90625 C 66.296875 291.28125 66.261719 290.65625 66.253906 290.027344 C 66.25 289.398438 66.273438 288.769531 66.328125 288.144531 C 66.382812 287.515625 66.464844 286.894531 66.582031 286.277344 C 66.695312 285.660156 66.839844 285.046875 67.011719 284.441406 C 67.1875 283.839844 67.390625 283.246094 67.621094 282.660156 C 67.851562 282.074219 68.109375 281.503906 68.398438 280.945312 C 68.683594 280.382812 68.996094 279.839844 69.335938 279.3125 C 69.675781 278.78125 70.039062 278.269531 70.429688 277.777344 C 70.816406 277.28125 71.230469 276.808594 71.664062 276.355469 L 248.902344 98.882812 C 247.925781 98.476562 246.992188 97.996094 246.101562 97.429688 C 245.210938 96.863281 244.375 96.226562 243.59375 95.519531 C 242.8125 94.808594 242.097656 94.039062 241.449219 93.203125 C 240.800781 92.371094 240.230469 91.488281 239.734375 90.558594 C 239.234375 89.625 238.824219 88.65625 238.492188 87.652344 C 238.164062 86.648438 237.921875 85.625 237.769531 84.582031 C 237.617188 83.535156 237.554688 82.484375 237.582031 81.429688 C 237.613281 80.371094 237.730469 79.328125 237.9375 78.289062 C 238.148438 77.253906 238.445312 76.246094 238.828125 75.261719 C 239.207031 74.277344 239.671875 73.332031 240.21875 72.429688 C 240.765625 71.523438 241.382812 70.671875 242.074219 69.875 C 242.765625 69.078125 243.523438 68.347656 244.339844 67.679688 C 245.160156 67.015625 246.027344 66.425781 246.949219 65.910156 C 247.867188 65.390625 248.824219 64.960938 249.820312 64.609375 C 250.816406 64.257812 251.832031 63.996094 252.871094 63.824219 C 253.910156 63.648438 254.960938 63.566406 256.011719 63.570312 L 289.796875 63.570312 C 290.550781 63.460938 291.3125 63.394531 292.074219 63.375 C 292.835938 63.355469 293.597656 63.378906 294.359375 63.449219 C 295.121094 63.519531 295.871094 63.632812 296.621094 63.792969 C 297.367188 63.953125 298.101562 64.15625 298.824219 64.402344 C 299.546875 64.648438 300.25 64.9375 300.941406 65.265625 C 301.628906 65.597656 302.292969 65.96875 302.9375 66.378906 C 303.582031 66.789062 304.203125 67.234375 304.792969 67.71875 C 305.386719 68.199219 305.945312 68.714844 306.476562 69.265625 C 307.007812 69.816406 307.503906 70.394531 307.964844 71.003906 C 308.429688 71.613281 308.851562 72.246094 309.238281 72.90625 C 309.625 73.566406 309.972656 74.246094 310.28125 74.945312 C 310.585938 75.648438 310.851562 76.363281 311.070312 77.09375 C 311.292969 77.828125 311.472656 78.570312 311.605469 79.320312 C 311.738281 80.074219 311.828125 80.832031 311.871094 81.597656 C 311.917969 82.359375 311.914062 83.125 311.871094 83.886719 C 311.824219 84.652344 311.730469 85.410156 311.597656 86.160156 Z M 311.597656 86.160156 " fill-opacity="1" fill-rule="nonzero"/></g></svg>